<svg width="32" height="32" viewBox="0 0 32 32" xmlns="http://www.w3.org/2000/svg">
  <defs>
    <linearGradient id="bronzeGradient" x1="0%" y1="0%" x2="100%" y2="100%">
      <stop offset="0%" style="stop-color:#c08b3e;stop-opacity:1" />
      <stop offset="100%" style="stop-color:#d7a75e;stop-opacity:1" />
    </linearGradient>
    <linearGradient id="steelGradient" x1="0%" y1="0%" x2="100%" y2="100%">
      <stop offset="0%" style="stop-color:#6ea2c9;stop-opacity:1" />
      <stop offset="100%" style="stop-color:#9bc0db;stop-opacity:1" />
    </linearGradient>
  </defs>
  
  <!-- Rounded square frame -->
  <rect x="2" y="2" width="28" height="28" rx="4" ry="4" 
        fill="#121a21" stroke="url(#bronzeGradient)" stroke-width="1"/>
  
  <!-- Wolf head silhouette -->
  <path d="M 10 18 
           Q 9 15 10 12
           Q 11 11 13 12
           Q 15 10 17 12
           Q 19 11 20 12
           Q 21 15 20 18
           Q 19 19 18 19
           Q 17 20 16 20
           Q 15 19 14 19
           Q 13 19 12 19
           Q 11 20 10 19
           Q 9 19 10 18 Z" 
        fill="url(#bronzeGradient)"/>
  
  <!-- Wolf eye -->
  <polygon points="14,15 15,14 16,15 15,16" fill="#121a21"/>
  
  <!-- Circuit traces -->
  <!-- Top-left circuit -->
  <path d="M 6 6 
           L 6 10
           L 10 10" 
        stroke="url(#steelGradient)" 
        stroke-width="1" 
        fill="none" 
        stroke-linecap="round" 
        stroke-linejoin="round"/>
  
  <!-- Bottom-right circuit -->
  <path d="M 26 26 
           L 26 22
           L 22 22" 
        stroke="url(#steelGradient)" 
        stroke-width="1" 
        fill="none" 
        stroke-linecap="round" 
        stroke-linejoin="round"/>
  
  <!-- Circuit connection points -->
  <circle cx="6" cy="6" r="1" fill="url(#steelGradient)"/>
  <circle cx="10" cy="10" r="0.5" fill="url(#steelGradient)"/>
  <circle cx="26" cy="26" r="1" fill="url(#steelGradient)"/>
  <circle cx="22" cy="22" r="0.5" fill="url(#steelGradient)"/>
</svg>
