<svg width="256" height="256" viewBox="0 0 256 256" xmlns="http://www.w3.org/2000/svg">
  <defs>
    <linearGradient id="bronzeGradient" x1="0%" y1="0%" x2="100%" y2="100%">
      <stop offset="0%" style="stop-color:#c08b3e;stop-opacity:1" />
      <stop offset="100%" style="stop-color:#d7a75e;stop-opacity:1" />
    </linearGradient>
    <linearGradient id="steelGradient" x1="0%" y1="0%" x2="100%" y2="100%">
      <stop offset="0%" style="stop-color:#6ea2c9;stop-opacity:1" />
      <stop offset="100%" style="stop-color:#9bc0db;stop-opacity:1" />
    </linearGradient>
    <filter id="texture" x="-50%" y="-50%" width="200%" height="200%">
      <feTurbulence baseFrequency="0.9" numOctaves="4" result="noise" seed="1"/>
      <feDiffuseLighting in="noise" lighting-color="white" surfaceScale="1">
        <feDistantLight azimuth="45" elevation="60"/>
      </feDiffuseLighting>
    </filter>
  </defs>
  
  <!-- Rounded square frame -->
  <rect x="20" y="20" width="216" height="216" rx="32" ry="32" 
        fill="#121a21" stroke="url(#bronzeGradient)" stroke-width="6"/>
  
  <!-- Wolf head silhouette -->
  <path d="M 80 140 
           Q 70 120 80 100
           Q 90 90 110 95
           Q 130 85 150 95
           Q 170 90 180 100
           Q 190 120 180 140
           Q 175 150 170 155
           Q 165 160 160 158
           Q 155 155 150 150
           Q 140 145 130 150
           Q 120 145 110 150
           Q 105 155 100 158
           Q 95 160 90 155
           Q 85 150 80 140 Z" 
        fill="url(#bronzeGradient)" filter="url(#texture)"/>
  
  <!-- Wolf eye -->
  <polygon points="120,120 125,115 130,120 125,125" fill="#121a21"/>
  
  <!-- Circuit traces -->
  <!-- Top-left circuit -->
  <path d="M 50 50 
           L 50 80
           L 80 80
           L 80 100" 
        stroke="url(#steelGradient)" 
        stroke-width="3" 
        fill="none" 
        stroke-linecap="round" 
        stroke-linejoin="round"/>
  
  <!-- Bottom-left circuit -->
  <path d="M 50 200 
           L 80 200
           L 80 180
           L 100 180" 
        stroke="url(#steelGradient)" 
        stroke-width="3" 
        fill="none" 
        stroke-linecap="round" 
        stroke-linejoin="round"/>
  
  <!-- Bottom-right circuit -->
  <path d="M 200 200 
           L 200 180
           L 180 180
           L 180 160" 
        stroke="url(#steelGradient)" 
        stroke-width="3" 
        fill="none" 
        stroke-linecap="round" 
        stroke-linejoin="round"/>
  
  <!-- Circuit connection points -->
  <circle cx="50" cy="50" r="4" fill="url(#steelGradient)"/>
  <circle cx="80" cy="100" r="3" fill="url(#steelGradient)"/>
  <circle cx="50" cy="200" r="4" fill="url(#steelGradient)"/>
  <circle cx="100" cy="180" r="3" fill="url(#steelGradient)"/>
  <circle cx="200" cy="200" r="4" fill="url(#steelGradient)"/>
  <circle cx="180" cy="160" r="3" fill="url(#steelGradient)"/>
</svg>
